<svg xmlns="http://www.w3.org/2000/svg" width="20" height="22" viewBox="0 0 20 22">
    <path fill="#000" fill-opacity=".91" fill-rule="nonzero" stroke="#EDEDED" stroke-width=".5" d="M14.153 1c-1.186 0-2.353.46-3.253 1.362l-7.998 8.01a6.528 6.528 0 0 0 0 9.213 6.504 6.504 0 0 0 9.198 0l5.332-5.34-1.2-1.202-5.332 5.34a4.792 4.792 0 0 1-6.798 0 4.81 4.81 0 0 1 0-6.809l7.998-8.01a2.91 2.91 0 0 1 4.133 0 2.92 2.92 0 0 1 0 4.138l-7.999 8.011c-.41.41-1.056.41-1.466 0a1.03 1.03 0 0 1 0-1.469L14.1 6.901 12.9 5.7l-7.332 7.343a2.749 2.749 0 0 0 0 3.872 2.739 2.739 0 0 0 3.866 0l7.998-8.011a4.639 4.639 0 0 0 0-6.542A4.636 4.636 0 0 0 14.153 1z"/>
</svg>
