<?xml version="1.0" encoding="UTF-8"?>
<svg width="20px" height="26px" viewBox="0 0 20 26" version="1.1" xmlns="http://www.w3.org/2000/svg" xmlns:xlink="http://www.w3.org/1999/xlink">
    <!-- Generator: sketchtool 50.2 (55047) - http://www.bohemiancoding.com/sketch -->
    <title>9B3D3553-AD69-4977-9D96-AD096D9A3236</title>
    <desc>Created with sketchtool.</desc>
    <defs></defs>
        <g id="[Web]Home_main_with_cards" transform="translate(-1085.000000, -635.000000)" fill-rule="nonzero"  stroke-width="0.5">
            <g id="SliderCard-Copy-4" transform="translate(700.000000, 539.000000)">
                <g id="Button_wait_call" transform="translate(368.000000, 90.000000)">
                    <path d="M17.965812,7 L17.965812,9 L19.9450395,9 L19.9450395,13 C19.9450395,15.542969 21.2980275,17.773438 23.3159113,19 C21.2980275,20.226563 19.9450395,22.457031 19.9450395,25 L19.9450395,29 L17.965812,29 L17.965812,31 L35.7788595,31 L35.7788595,29 L33.799632,29 L33.799632,25 C33.799632,22.457031 32.4466449,20.226563 30.4287601,19 C32.4466449,17.773438 33.799632,15.542969 33.799632,13 L33.799632,9 L35.7788595,9 L35.7788595,7 L17.965812,7 Z M21.924267,9 L31.8204045,9 L31.8204045,13 C31.8204045,15.773438 29.6169681,18 26.8723357,18 C24.1277043,18 21.924267,15.773438 21.924267,13 L21.924267,9 Z M23.0685079,14 C23.5091957,15.722656 25.0284072,17 26.8723357,17 C28.7162642,17 30.2354767,15.722656 30.6761636,14 L23.0685079,14 Z M26.8723357,20 C29.6169681,20 31.8204045,22.226563 31.8204045,25 L31.8204045,29 L30.8307907,29 C30.8307907,26.789063 29.0603104,25 26.8723357,25 C24.6843621,25 22.9138807,26.789063 22.9138807,29 L21.924267,29 L21.924267,25 C21.924267,22.226563 24.1277043,20 26.8723357,20 Z" id="icons-hourglass"></path>
                </g>
            </g>
        </g>
</svg>