<svg xmlns="http://www.w3.org/2000/svg" viewBox="0 0 18 17">
    <path fill="#FFF" fill-rule="nonzero" d="M9 .8c-2.273 0-4.34.668-5.869 1.786C1.601 3.702.6 5.305.6 7.1c0 2.177 1.484 4.02 3.6 5.13v4.17l4.048-3.037c.246.018.494.037.752.037 2.273 0 4.34-.668 5.869-1.784 1.53-1.118 2.531-2.72 2.531-4.516 0-1.795-1-3.398-2.531-4.514C13.34 1.468 11.273.8 9 .8zM9 2c2.034 0 3.867.61 5.16 1.554 1.295.944 2.04 2.194 2.04 3.546 0 1.352-.745 2.602-2.04 3.546-1.293.945-3.126 1.554-5.16 1.554-.295 0-.59-.016-.886-.045l-.23-.018L5.4 14v-2.484l-.347-.16C3.043 10.412 1.8 8.832 1.8 7.1c0-1.352.745-2.602 2.04-3.546C5.132 2.609 6.965 2 9 2z"/>
</svg>
