<svg xmlns="http://www.w3.org/2000/svg" width="26" height="26" viewBox="0 0 26 26">
    <path fill-opacity=".91" fill-rule="nonzero" stroke-width=".5" d="M9.893.4l-.151.787-.576 2.878a9.633 9.633 0 0 0-2.514 1.484l-2.816-.97-.758-.242-.393.697L.746 8.366l-.394.697.576.514 2.18 1.909c-.079.496-.181.992-.181 1.514s.102 1.018.182 1.514L.928 16.423l-.576.515.394.696 1.939 3.332.393.697.758-.243 2.816-.969c.758.61 1.59 1.12 2.514 1.484l.576 2.878.151.787h5.452l.152-.788.575-2.877a9.633 9.633 0 0 0 2.514-1.484l2.817.97.757.242.394-.697 1.938-3.332.394-.697-.575-.514-2.181-1.909c.08-.496.182-.992.182-1.514s-.103-1.018-.182-1.514l2.18-1.909.576-.514-.394-.697-1.938-3.332-.394-.697-.757.243-2.817.969a9.633 9.633 0 0 0-2.514-1.484l-.575-2.878L15.345.4H9.893zm1.575 1.938h2.302l.485 2.514.121.576.545.182a7.77 7.77 0 0 1 2.938 1.696l.424.394.545-.182 2.454-.848 1.15 1.968-1.938 1.727-.454.363.151.576c.125.553.182 1.117.182 1.696 0 .58-.057 1.143-.182 1.696l-.12.576.423.363 1.939 1.727-1.151 1.968-2.454-.848-.545-.182-.424.394a7.77 7.77 0 0 1-2.938 1.696l-.545.182-.121.576-.485 2.514h-2.302l-.484-2.514-.121-.576-.546-.182a7.77 7.77 0 0 1-2.938-1.696l-.424-.394-.545.182-2.453.848-1.151-1.968 1.938-1.727.455-.363-.152-.576A7.658 7.658 0 0 1 4.865 13c0-.58.057-1.143.182-1.696l.152-.576-.455-.363-1.938-1.727 1.15-1.968 2.454.848.545.182.424-.394a7.77 7.77 0 0 1 2.938-1.696l.546-.182.12-.576.485-2.514zm1.151 5.816A4.86 4.86 0 0 0 7.773 13a4.86 4.86 0 0 0 4.846 4.846A4.86 4.86 0 0 0 17.465 13a4.86 4.86 0 0 0-4.846-4.846zm0 1.938A2.894 2.894 0 0 1 15.527 13a2.894 2.894 0 0 1-2.908 2.908A2.894 2.894 0 0 1 9.712 13a2.894 2.894 0 0 1 2.907-2.908z"/>
</svg>
