<?xml version="1.0" encoding="UTF-8"?>
<svg width="39px" height="32px" viewBox="0 0 39 32" version="1.1" xmlns="http://www.w3.org/2000/svg" xmlns:xlink="http://www.w3.org/1999/xlink">
    <!-- Generator: sketchtool 50.2 (55047) - http://www.bohemiancoding.com/sketch -->
    <title>D82E49D9-B46C-437D-8626-F6DA09A6F1FE</title>
    <desc>Created with sketchtool.</desc>
    <defs>
        <polygon id="path-1" points="38.9651994 0.00169190099 0.0724017266 0.00169190099 0.0724017266 31.9732064 38.9651994 31.9732064 38.9651994 0.00169190099"></polygon>
    </defs>
    <g id="Guideline" stroke="none" stroke-width="1" fill="none" fill-rule="evenodd">
        <g id="Assety" transform="translate(-20.000000, -35.000000)">
            <g id="logoPPLS" transform="translate(20.000000, 35.000000)">
                <g id="Group-22">
                    <mask id="mask-2" fill="white">
                        <use xlink:href="#path-1"></use>
                    </mask>
                    <g id="Clip-21"></g>
                    <path d="M35.869328,21.6492266 L31.5592839,21.6492266 L29.5505477,19.4235309 L33.859052,19.4235309 L35.869328,21.6492266 Z M31.5592839,15.7808681 L35.869328,15.7808681 L33.859052,18.0057179 L29.5505477,18.0057179 L31.5592839,15.7808681 Z M19.9233965,21.4098226 C18.809314,22.6322211 18.2018426,24.2293756 18.2133915,25.9035117 C18.2133915,26.0836991 18.2241704,26.2638866 18.2403389,26.4406902 L11.8930713,19.4700582 L14.7972311,19.4700582 L14.7972311,18.0310964 L10.6019058,18.0310964 C9.02740775,16.0980995 9.0828424,13.2218678 10.7759091,11.3607767 L19.2620303,2.03671041 L25.27669,8.64612161 L25.2720705,8.65119731 C27.029041,10.5808104 27.029041,13.6025455 25.2720705,15.5321586 L19.9233965,21.4098226 Z M24.8855678,21.5257179 C23.9216208,21.5832425 23.0223475,22.018907 22.3355738,22.7743408 C21.8289627,23.3292843 21.514063,24.035653 21.4162825,24.8012382 L20.1489847,23.4088037 C20.3414662,23.0585801 20.5747537,22.7286595 20.8496171,22.4275011 L20.3853519,21.9182389 L20.8496171,22.4275011 L23.2779629,19.7593732 L24.8855678,21.5257179 Z M22.6889697,25.3096544 C22.6889697,24.9839635 22.7551833,24.6701158 22.8783714,24.3850305 L25.1896884,26.9245739 C24.9325332,27.1605941 24.6122441,27.2883326 24.2734768,27.2883326 C23.8915937,27.2883326 23.5335782,27.1250642 23.2617944,26.8272896 L23.2602546,26.8255977 C22.893,26.4212334 22.6905095,25.8823629 22.6889697,25.3096544 Z M26.9474288,23.7903273 L26.9489687,23.7920192 C27.5941664,24.5009257 27.950642,25.4458524 27.9491022,26.4491497 C27.9491022,27.453293 27.5941664,28.3990656 26.9474288,29.1071262 C25.2343441,30.9885201 22.4618416,31.0079769 20.7279689,29.1680346 C19.9580432,28.2577919 19.5322742,27.1030695 19.524575,25.8942062 C19.5222652,25.5448286 19.5561419,25.2013727 19.6208157,24.8663764 L22.3355738,27.844968 C22.8529639,28.4151387 23.5412775,28.7272944 24.2734768,28.7272944 C25.0079859,28.7272944 25.6947597,28.4142927 26.2136896,27.844968 L27.0467492,26.9296496 L23.7853439,23.3462033 C24.1803158,23.0898803 24.6330321,22.9528363 25.1065364,22.9528363 C25.8002395,22.9528363 26.4554463,23.2506109 26.9474288,23.7903273 Z M38.9567302,19.4235309 L38.9567302,18.0057179 L35.6753068,18.0057179 L38.9651994,14.363055 L31.0226457,14.363055 L27.7342929,18.0057179 L24.872479,18.0057179 L26.1982911,16.5489911 C28.4749615,14.0500534 28.4749615,10.1333026 26.1982911,7.63351887 L26.2029107,7.62844316 L19.2620303,0.00135352079 L9.84968842,10.3430983 C7.92025457,12.4630502 7.62845272,15.6006806 8.97120317,18.0310964 L6.01391849,18.0310964 L6.97170608,15.5524614 L0.0724017266,18.7493083 L6.97170608,21.9486931 L6.01391849,19.4700582 L10.04063,19.4700582 L19.741694,30.1256506 C19.7701813,30.1586426 19.8017482,30.1882509 19.8302355,30.220397 C19.8618024,30.2559269 19.8918296,30.2923028 19.9233965,30.3269868 L19.9280161,30.3210651 C21.0228504,31.4224927 22.4133363,31.9732064 23.8061319,31.9732064 C25.2797697,31.9732064 26.7518677,31.3582004 27.8736495,30.1256506 C28.7683032,29.143502 29.2602857,27.8382004 29.2602857,26.4508416 C29.2602857,25.060945 28.7683032,23.7556434 27.8751893,22.7743408 L24.8239737,19.4235309 L27.7342929,19.4235309 L31.0226457,23.0670397 L38.9651994,23.0670397 L35.6753068,19.4235309 L38.9567302,19.4235309 Z" id="Fill-20" fill="#231F20" mask="url(#mask-2)"></path>
                </g>
                <polygon id="Fill-23" fill="#231F20" points="12.5637584 13.3223193 18.4194861 19.7142857 19.3691275 18.6785424 13.5133999 12.2857143"></polygon>
                <polygon id="Fill-25" fill="#231F20" points="15.1812081 10.7507705 21.037156 17.1428571 21.9865772 16.1063724 16.1306293 9.71428571"></polygon>
                <polygon id="Fill-27" fill="#231F20" points="17.5369128 7.92000816 23.3685831 14.2857143 24.3422819 13.222849 18.5106115 6.85714286"></polygon>
            </g>
        </g>
    </g>
</svg>