<svg xmlns="http://www.w3.org/2000/svg" width="28" height="28" viewBox="0 0 28 28">
    <path fill-rule="nonzero"  stroke-width=".5" d="M14 1C6.832 1 1 6.832 1 14s5.832 13 13 13 13-5.832 13-13S21.168 1 14 1zm0 2c6.086 0 11 4.914 11 11s-4.914 11-11 11S3 20.086 3 14 7.914 3 14 3zm0 3c-2.75 0-5 2.25-5 5 0 1.516.707 2.863 1.781 3.781A7.005 7.005 0 0 0 7 21h2c0-2.773 2.227-5 5-5s5 2.227 5 5h2c0-2.7-1.531-5.05-3.781-6.219C18.293 13.863 19 12.516 19 11c0-2.75-2.25-5-5-5zm0 2c1.668 0 3 1.332 3 3s-1.332 3-3 3-3-1.332-3-3 1.332-3 3-3z"/>
</svg>
